<svg width="24" height="24" viewBox="0 0 24 24" fill="none" xmlns="http://www.w3.org/2000/svg">
<path d="M8 8L8 7C8 4.79086 9.79086 3 12 3V3C14.2091 3 16 4.79086 16 7L16 8" stroke="black" stroke-width="2" stroke-linecap="round"/>
<path d="M17 7C18.8856 7 19.8283 7.00015 20.4141 7.58594C20.9998 8.17172 21 9.11438 21 11V14C21 17.7712 20.9997 19.6566 19.8281 20.8281C18.6566 21.9997 16.7712 22 13 22H11C7.22876 22 5.34345 21.9997 4.17188 20.8281C3.0003 19.6566 3 17.7712 3 14V11C3 9.11438 3.00015 8.17172 3.58594 7.58594C4.17172 7.00015 5.11438 7 7 7H17ZM9 11C8.44772 11 8 11.4477 8 12V14C8 14.5523 8.44772 15 9 15C9.55228 15 10 14.5523 10 14V12C10 11.4477 9.55228 11 9 11ZM15 11C14.4477 11 14 11.4477 14 12V14C14 14.5523 14.4477 15 15 15C15.5523 15 16 14.5523 16 14V12C16 11.4477 15.5523 11 15 11Z" fill="black"/>
</svg>
