<svg width="24" height="24" viewBox="0 0 24 24" fill="none" xmlns="http://www.w3.org/2000/svg">
<path d="M22 14C22 16.8284 21.9998 18.2424 21.1211 19.1211C20.2424 19.9998 18.8284 20 16 20H8C5.17157 20 3.75759 19.9998 2.87891 19.1211C2.00023 18.2424 2 16.8284 2 14V12H22V14ZM7 15C6.44772 15 6 15.4477 6 16C6 16.5523 6.44772 17 7 17H7.00977L7.1123 16.9951C7.61655 16.9439 8.00977 16.5178 8.00977 16C8.00977 15.4822 7.61655 15.0561 7.1123 15.0049L7.00977 15H7ZM16 5C18.8284 5 20.2424 5.00023 21.1211 5.87891C21.8895 6.64729 21.9859 7.82497 21.998 10H2.00195C2.01406 7.82497 2.11052 6.64729 2.87891 5.87891C3.75759 5.00023 5.17157 5 8 5H16Z" fill="black"/>
</svg>
