<svg width="24" height="24" viewBox="0 0 24 24" fill="none" xmlns="http://www.w3.org/2000/svg">
<path d="M4.62127 4.51493C4.80316 3.78737 4.8941 3.42359 5.16536 3.21179C5.43663 3 5.8116 3 6.56155 3H17.4384C18.1884 3 18.5634 3 18.8346 3.21179C19.1059 3.42359 19.1968 3.78737 19.3787 4.51493L20.5823 9.32938C20.6792 9.71675 20.7276 9.91044 20.7169 10.0678C20.6892 10.4757 20.416 10.8257 20.0269 10.9515C19.8769 11 19.6726 11 19.2641 11C18.7309 11 18.4644 11 18.2405 10.9478C17.6133 10.8017 17.0948 10.3625 16.8475 9.76782C16.7593 9.55555 16.7164 9.29856 16.6308 8.78457C16.6068 8.64076 16.5948 8.56886 16.5812 8.54994C16.5413 8.49439 16.4587 8.49439 16.4188 8.54994C16.4052 8.56886 16.3932 8.64076 16.3692 8.78457L16.2877 9.27381C16.2791 9.32568 16.2747 9.35161 16.2704 9.37433C16.0939 10.3005 15.2946 10.9777 14.352 10.9995C14.3289 11 14.3026 11 14.25 11C14.1974 11 14.1711 11 14.148 10.9995C13.2054 10.9777 12.4061 10.3005 12.2296 9.37433C12.2253 9.35161 12.2209 9.32568 12.2123 9.27381L12.1308 8.78457C12.1068 8.64076 12.0948 8.56886 12.0812 8.54994C12.0413 8.49439 11.9587 8.49439 11.9188 8.54994C11.9052 8.56886 11.8932 8.64076 11.8692 8.78457L11.7877 9.27381C11.7791 9.32568 11.7747 9.35161 11.7704 9.37433C11.5939 10.3005 10.7946 10.9777 9.85199 10.9995C9.82887 11 9.80258 11 9.75 11C9.69742 11 9.67113 11 9.64801 10.9995C8.70541 10.9777 7.90606 10.3005 7.7296 9.37433C7.72527 9.35161 7.72095 9.32568 7.7123 9.27381L7.63076 8.78457C7.60679 8.64076 7.59481 8.56886 7.58122 8.54994C7.54132 8.49439 7.45868 8.49439 7.41878 8.54994C7.40519 8.56886 7.39321 8.64076 7.36924 8.78457C7.28357 9.29856 7.24074 9.55555 7.15249 9.76782C6.90524 10.3625 6.38675 10.8017 5.75951 10.9478C5.53563 11 5.26905 11 4.73591 11C4.32737 11 4.12309 11 3.97306 10.9515C3.58403 10.8257 3.31078 10.4757 3.28307 10.0678C3.27239 9.91044 3.32081 9.71675 3.41765 9.32938L4.62127 4.51493Z" fill="black"/>
<path d="M16.499 11.7239C16.9035 12.0499 17.3802 12.2882 17.9004 12.4094L18.0645 12.4417C18.3606 12.4919 18.673 12.4965 18.9795 12.4973C18.9971 12.9189 19 13.414 19 14.0002V20.0002C19 20.9429 18.9999 21.4144 18.707 21.7073C18.4141 22.0001 17.9427 22.0002 17 22.0002H14V18.0002C14 17.448 13.5523 17.0002 13 17.0002H11C10.4477 17.0002 10 17.448 10 18.0002V22.0002H7C6.0573 22.0002 5.58587 22.0001 5.29297 21.7073C5.0001 21.4144 5 20.9429 5 20.0002V14.0002C5 13.4154 5.00203 12.9212 5.01953 12.5002C5.38357 12.4994 5.75594 12.4894 6.09961 12.4094L6.30371 12.3547C6.74468 12.2236 7.14912 12.0065 7.5 11.7239C8.08432 12.1947 8.81902 12.4809 9.61328 12.4993L9.75 12.5002C9.79462 12.5002 9.84198 12.5003 9.88672 12.4993L10.1924 12.4788C10.8692 12.4039 11.4914 12.1337 12 11.7239C12.5843 12.1947 13.319 12.4809 14.1133 12.4993L14.25 12.5002C14.2946 12.5002 14.342 12.5003 14.3867 12.4993L14.6924 12.4788C15.369 12.404 15.9905 12.1334 16.499 11.7239Z" fill="black"/>
</svg>
